<svg width="17" height="17" viewBox="0 0 17 17" fill="none" xmlns="http://www.w3.org/2000/svg">
<path d="M8.5 0C3.808 0 0 3.808 0 8.5C0 13.192 3.808 17 8.5 17C13.192 17 17 13.192 17 8.5C17 3.808 13.192 0 8.5 0ZM4.3095 13.838C4.675 13.073 6.902 12.325 8.5 12.325C10.098 12.325 12.3335 13.073 12.6905 13.838C11.5345 14.756 10.081 15.3 8.5 15.3C6.919 15.3 5.4655 14.756 4.3095 13.838ZM13.906 12.6055C12.6905 11.1265 9.741 10.625 8.5 10.625C7.259 10.625 4.3095 11.1265 3.094 12.6055C2.227 11.4665 1.7 10.047 1.7 8.5C1.7 4.7515 4.7515 1.7 8.5 1.7C12.2485 1.7 15.3 4.7515 15.3 8.5C15.3 10.047 14.773 11.4665 13.906 12.6055ZM8.5 3.4C6.851 3.4 5.525 4.726 5.525 6.375C5.525 8.024 6.851 9.35 8.5 9.35C10.149 9.35 11.475 8.024 11.475 6.375C11.475 4.726 10.149 3.4 8.5 3.4ZM8.5 7.65C7.7945 7.65 7.225 7.0805 7.225 6.375C7.225 5.6695 7.7945 5.1 8.5 5.1C9.2055 5.1 9.775 5.6695 9.775 6.375C9.775 7.0805 9.2055 7.65 8.5 7.65Z" fill="white"/>
</svg>
