<svg width="15" height="15" viewBox="0 0 15 15" fill="none" xmlns="http://www.w3.org/2000/svg">
<path d="M9.62508 0.416626C7.7055 0.416626 6.048 1.50746 5.21925 3.09413C4.31258 3.56871 3.56175 4.31246 3.09425 5.21913C1.50758 6.04788 0.416748 7.70538 0.416748 9.62496C0.416748 12.3662 2.63383 14.5833 5.37508 14.5833C7.29466 14.5833 8.95217 13.4925 9.78092 11.9058C10.6876 11.4312 11.4384 10.6875 11.9059 9.78079C13.4926 8.95204 14.5834 7.29454 14.5834 5.37496C14.5834 2.63371 12.3663 0.416626 9.62508 0.416626ZM5.37508 13.1666C3.42008 13.1666 1.83341 11.58 1.83341 9.62496C1.83341 8.83163 2.0955 8.09496 2.54175 7.49996C2.54175 10.2412 4.75883 12.4583 7.50008 12.4583C6.90508 12.9045 6.16841 13.1666 5.37508 13.1666ZM7.50008 11.0416C5.54508 11.0416 3.95842 9.45496 3.95842 7.49996C3.95842 6.70663 4.2205 5.96996 4.66675 5.37496C4.66675 8.10913 6.88383 10.3262 9.62508 10.3333C9.03008 10.7795 8.29342 11.0416 7.50008 11.0416ZM10.8292 8.70413C10.4538 8.83871 10.0501 8.91663 9.62508 8.91663C7.67008 8.91663 6.08342 7.32996 6.08342 5.37496C6.08342 4.94996 6.16133 4.54621 6.29592 4.17079C6.67133 4.03621 7.07508 3.95829 7.50008 3.95829C9.45508 3.95829 11.0417 5.54496 11.0417 7.49996C11.0417 7.92496 10.9638 8.32871 10.8292 8.70413ZM12.4584 7.49996C12.4584 4.76579 10.2413 2.54871 7.50008 2.54163C8.09508 2.09538 8.82467 1.83329 9.62508 1.83329C11.5801 1.83329 13.1667 3.41996 13.1667 5.37496C13.1667 6.16829 12.9047 6.90496 12.4584 7.49996Z" fill="white"/>
</svg>
