<svg width="22" height="22" viewBox="0 0 22 22" fill="none" xmlns="http://www.w3.org/2000/svg">
<mask id="path-1-inside-1_106_23" fill="white">
<path d="M19.5556 0H2.44444C1.08778 0 0 1.1 0 2.44444V19.5556C0 20.9 1.08778 22 2.44444 22H19.5556C20.9 22 22 20.9 22 19.5556V2.44444C22 1.1 20.9 0 19.5556 0ZM9.77778 17.1111H12.2222V12.2222H17.1111V9.77778H12.2222V4.88889H9.77778V9.77778H4.88889V12.2222H9.77778V17.1111Z"/>
</mask>
<path d="M9.77778 17.1111H-15.2222V42.1111H9.77778V17.1111ZM12.2222 17.1111V42.1111H37.2222V17.1111H12.2222ZM12.2222 12.2222V-12.7778H-12.7778V12.2222H12.2222ZM17.1111 12.2222V37.2222H42.1111V12.2222H17.1111ZM17.1111 9.77778H42.1111V-15.2222H17.1111V9.77778ZM12.2222 9.77778H-12.7778V34.7778H12.2222V9.77778ZM12.2222 4.88889H37.2222V-20.1111H12.2222V4.88889ZM9.77778 4.88889V-20.1111H-15.2222V4.88889H9.77778ZM9.77778 9.77778V34.7778H34.7778V9.77778H9.77778ZM4.88889 9.77778V-15.2222H-20.1111V9.77778H4.88889ZM4.88889 12.2222H-20.1111V37.2222H4.88889V12.2222ZM9.77778 12.2222H34.7778V-12.7778H9.77778V12.2222ZM19.5556 -25H2.44444V25H19.5556V-25ZM2.44444 -25C-12.8007 -25 -25 -12.6256 -25 2.44444H25C25 14.8256 14.9762 25 2.44444 25V-25ZM-25 2.44444V19.5556H25V2.44444H-25ZM-25 19.5556C-25 34.6256 -12.8007 47 2.44444 47V-3C14.9762 -3 25 7.17437 25 19.5556H-25ZM2.44444 47H19.5556V-3H2.44444V47ZM19.5556 47C34.7071 47 47 34.7071 47 19.5556H-3C-3 7.09288 7.09288 -3 19.5556 -3V47ZM47 19.5556V2.44444H-3V19.5556H47ZM47 2.44444C47 -12.7071 34.7071 -25 19.5556 -25V25C7.09288 25 -3 14.9071 -3 2.44444H47ZM9.77778 42.1111H12.2222V-7.88889H9.77778V42.1111ZM37.2222 17.1111V12.2222H-12.7778V17.1111H37.2222ZM12.2222 37.2222H17.1111V-12.7778H12.2222V37.2222ZM42.1111 12.2222V9.77778H-7.88889V12.2222H42.1111ZM17.1111 -15.2222H12.2222V34.7778H17.1111V-15.2222ZM37.2222 9.77778V4.88889H-12.7778V9.77778H37.2222ZM12.2222 -20.1111H9.77778V29.8889H12.2222V-20.1111ZM-15.2222 4.88889V9.77778H34.7778V4.88889H-15.2222ZM9.77778 -15.2222H4.88889V34.7778H9.77778V-15.2222ZM-20.1111 9.77778V12.2222H29.8889V9.77778H-20.1111ZM4.88889 37.2222H9.77778V-12.7778H4.88889V37.2222ZM-15.2222 12.2222V17.1111H34.7778V12.2222H-15.2222Z" fill="white" mask="url(#path-1-inside-1_106_23)"/>
</svg>
