<svg width="17" height="17" viewBox="0 0 17 17" fill="none" xmlns="http://www.w3.org/2000/svg">
<path d="M14.5124 6.01238V2.48762H10.9876L8.5 0L6.01238 2.48762H2.48762V6.01238L0 8.5L2.48762 10.9876V14.5124H6.01238L8.5 17L10.9876 14.5124H14.5124V10.9876L17 8.5L14.5124 6.01238ZM13.0093 10.3638V13.0093H10.3638L8.5 14.8731L6.63616 13.0093H3.99072V10.3638L2.12688 8.5L3.99072 6.63616V3.99072H6.63616L8.5 2.12688L10.3638 3.99072H13.0093V6.63616L14.8731 8.5L13.0093 10.3638ZM8.71795 4.74226C8.1618 4.74226 7.62821 4.87003 7.15473 5.08798C8.44739 5.6817 9.34925 6.98939 9.34925 8.5C9.34925 10.0106 8.44739 11.3183 7.15473 11.912C7.62821 12.13 8.1618 12.2577 8.71795 12.2577C10.7922 12.2577 12.4757 10.5743 12.4757 8.5C12.4757 6.42573 10.7922 4.74226 8.71795 4.74226Z" fill="white"/>
</svg>
