<svg width="21" height="16" viewBox="0 0 21 16" fill="none" xmlns="http://www.w3.org/2000/svg">
<path fill-rule="evenodd" clip-rule="evenodd" d="M13.3598 0.0950185L13.0498 0.813647C12.9793 0.97694 12.8082 1.07373 12.6306 1.05268C12.1489 0.995616 11.1875 0.892923 10.5001 0.892025C9.81266 0.892923 8.85113 0.995616 8.36944 1.05268C8.19184 1.07373 8.02068 0.97694 7.95022 0.813647L7.64014 0.0950185C7.61141 0.0284329 7.54218 -0.0103537 7.47039 0.00242103C6.98319 0.0891109 5.10242 0.458122 3.27821 1.27749C3.20662 1.30965 3.1467 1.3628 3.10543 1.42921C3.00891 1.58449 2.91109 1.73959 2.81259 1.89575C1.39199 4.14808 -0.16879 6.62267 0.0147749 13.1234C0.0182016 13.2448 0.0771994 13.36 0.176654 13.4306C1.24689 14.19 3.45432 15.5657 5.1312 15.9889C5.29216 16.0295 5.45759 15.9561 5.5448 15.8158L6.32449 14.5608C6.44815 14.3617 6.37196 14.1002 6.1604 13.9974L5.08194 13.4738C4.92904 13.3994 4.90026 13.1952 5.02675 13.0821C5.10615 13.0112 5.22264 12.9997 5.31666 13.0501C5.84133 13.3308 7.65494 14.1891 10.2212 14.1891C12.8502 14.1891 15.0988 13.2883 15.6886 13.0306C15.7811 12.99 15.8884 13.0063 15.9637 13.0735C16.0948 13.1907 16.0649 13.4024 15.9065 13.4794L14.8396 13.9974C14.6281 14.1002 14.5518 14.3617 14.6755 14.5608L15.4552 15.8158C15.5424 15.9561 15.7078 16.0295 15.8688 15.9889C17.5457 15.5657 19.7532 14.19 20.8233 13.4306C20.9229 13.36 20.9818 13.2448 20.9852 13.1234C21.1688 6.62267 19.608 4.14809 18.1874 1.89576V1.89569C18.0889 1.73954 17.9911 1.58448 17.8946 1.42921C17.8533 1.3628 17.7934 1.30965 17.7218 1.27749C15.8976 0.458122 14.0168 0.08911 13.5297 0.00242101C13.4578 -0.0103537 13.3886 0.0284326 13.3598 0.0950185ZM9.08461 8.21336C9.08461 9.39358 8.22833 10.3504 7.17206 10.3504C6.11579 10.3504 5.25952 9.39358 5.25952 8.21336C5.25952 7.03311 6.11579 6.07632 7.17206 6.07632C8.22833 6.07632 9.08461 7.03311 9.08461 8.21336ZM13.866 10.3504C14.9222 10.3504 15.7785 9.39358 15.7785 8.21336C15.7785 7.03311 14.9222 6.07632 13.866 6.07632C12.8097 6.07632 11.9535 7.03311 11.9535 8.21336C11.9535 9.39358 12.8097 10.3504 13.866 10.3504Z" fill="white"/>
</svg>
