<svg width="22" height="22" viewBox="0 0 22 22" fill="none" xmlns="http://www.w3.org/2000/svg">
<path d="M11 0C4.928 0 0 4.928 0 11C0 17.072 4.928 22 11 22C17.072 22 22 17.072 22 11C22 4.928 17.072 0 11 0ZM11 19.8C6.149 19.8 2.2 15.851 2.2 11C2.2 6.149 6.149 2.2 11 2.2C15.851 2.2 19.8 6.149 19.8 11C19.8 15.851 15.851 19.8 11 19.8ZM4.95 17.05L13.211 13.211L17.05 4.95L8.789 8.789L4.95 17.05ZM11 9.79C11.671 9.79 12.21 10.329 12.21 11C12.21 11.671 11.671 12.21 11 12.21C10.329 12.21 9.79 11.671 9.79 11C9.79 10.329 10.329 9.79 11 9.79Z" fill="white"/>
</svg>
