<svg width="22" height="22" viewBox="0 0 22 22" fill="none" xmlns="http://www.w3.org/2000/svg">
<mask id="path-1-inside-1_106_21" fill="white">
<path d="M11 0C4.928 0 0 4.928 0 11C0 17.072 4.928 22 11 22C17.072 22 22 17.072 22 11C22 4.928 17.072 0 11 0ZM5.5 16.5L13.211 13.211L15.95 5.5L8.789 8.789L5.5 16.5ZM11 9.79C11.671 9.79 12.21 10.329 12.21 11C12.21 11.671 11.671 12.21 11 12.21C10.329 12.21 9.79 11.671 9.79 11C9.79 10.329 10.329 9.79 11 9.79Z"/>
</mask>
<path d="M5.5 16.5L-10.137 9.8303L-26.7283 48.7283L12.1697 32.137L5.5 16.5ZM13.211 13.211L19.8807 28.848L26.7359 25.924L29.2304 18.9012L13.211 13.211ZM15.95 5.5L31.9694 11.1902L45.448 -26.7556L8.85462 -9.94848L15.95 5.5ZM8.789 8.789L1.69362 -6.65948L-4.27228 -3.91939L-6.84798 2.1193L8.789 8.789ZM11 -17C-4.46084 -17 -17 -4.46084 -17 11H17C17 14.3168 14.3168 17 11 17V-17ZM-17 11C-17 26.4608 -4.46084 39 11 39V5C14.3168 5 17 7.68316 17 11H-17ZM11 39C26.4608 39 39 26.4608 39 11H5C5 7.68316 7.68316 5 11 5V39ZM39 11C39 -4.46084 26.4608 -17 11 -17V17C7.68316 17 5 14.3168 5 11H39ZM12.1697 32.137L19.8807 28.848L6.54131 -2.42598L-1.1697 0.863019L12.1697 32.137ZM29.2304 18.9012L31.9694 11.1902L-0.0694114 -0.190205L-2.80841 7.5208L29.2304 18.9012ZM8.85462 -9.94848L1.69362 -6.65948L15.8844 24.2375L23.0454 20.9485L8.85462 -9.94848ZM-6.84798 2.1193L-10.137 9.8303L21.137 23.1697L24.426 15.4587L-6.84798 2.1193ZM11 26.79C2.28218 26.79 -4.79 19.7179 -4.79 11H29.21C29.21 0.940142 21.0598 -7.21 11 -7.21V26.79ZM-4.79 11C-4.79 2.28216 2.28216 -4.79 11 -4.79V29.21C21.0598 29.21 29.21 21.0598 29.21 11H-4.79ZM11 -4.79C19.7179 -4.79 26.79 2.28218 26.79 11H-7.21C-7.21 21.0598 0.940142 29.21 11 29.21V-4.79ZM26.79 11C26.79 19.7178 19.7178 26.79 11 26.79V-7.21C0.940159 -7.21 -7.21 0.940159 -7.21 11H26.79Z" fill="white" mask="url(#path-1-inside-1_106_21)"/>
</svg>
