<svg width="22" height="22" viewBox="0 0 22 22" fill="none" xmlns="http://www.w3.org/2000/svg">
<mask id="path-1-inside-1_106_25" fill="white">
<path d="M10.3088 0.66117L0.308777 10.2264C0.111551 10.415 0 10.6761 0 10.949V21C0 21.5523 0.447715 22 1 22H8V15.4348C8 13.7779 9.34315 12.4348 11 12.4348C12.6569 12.4348 14 13.7779 14 15.4348V22H21C21.5523 22 22 21.5523 22 21V10.949C22 10.6761 21.8884 10.415 21.6912 10.2264L11.6912 0.661169C11.3046 0.291359 10.6954 0.291359 10.3088 0.66117Z"/>
</mask>
<path d="M0.308777 10.2264L9.98589 20.3434L9.98589 20.3434L0.308777 10.2264ZM10.3088 0.66117L0.631661 -9.45582L0.63166 -9.45582L10.3088 0.66117ZM11.6912 0.661169L2.01409 10.7781L2.01411 10.7782L11.6912 0.661169ZM21.6912 10.2264L31.3684 0.109415L31.3683 0.109401L21.6912 10.2264ZM14 22H0V36H14V22ZM8 22V36H22V22H8ZM9.98589 20.3434L19.9859 10.7782L0.63166 -9.45582L-9.36834 0.109401L9.98589 20.3434ZM2.01411 10.7782L12.0141 20.3434L31.3683 0.109401L21.3683 -9.45582L2.01411 10.7782ZM8 10.949V21H36V10.949H8ZM21 8H14V36H21V8ZM28 22V15.4348H0V22H28ZM-6 15.4348V22H22V15.4348H-6ZM8 8H1V36H8V8ZM14 21V10.949H-14V21H14ZM1 8C8.17971 8 14 13.8203 14 21H-14C-14 29.2843 -7.28428 36 1 36V8ZM22 15.4348C22 21.5099 17.0751 26.4348 11 26.4348V-1.56522C1.61116 -1.56522 -6 6.04595 -6 15.4348H22ZM8 21C8 13.8203 13.8203 8 21 8V36C29.2842 36 36 29.2843 36 21H8ZM12.0141 20.3434C9.45016 17.8909 8 14.497 8 10.949H36C36 6.85516 34.3267 2.93918 31.3684 0.109415L12.0141 20.3434ZM19.9859 10.7782C14.9598 15.5857 7.04017 15.5857 2.01409 10.7781L21.3684 -9.45581C15.569 -15.003 6.43096 -15.003 0.631661 -9.45582L19.9859 10.7782ZM28 15.4348C28 6.04594 20.3888 -1.56522 11 -1.56522V26.4348C4.92487 26.4348 0 21.5099 0 15.4348H28ZM-9.36833 0.109392C-12.3267 2.93917 -14 6.85517 -14 10.949H14C14 14.497 12.5498 17.8909 9.98589 20.3434L-9.36833 0.109392Z" fill="white" mask="url(#path-1-inside-1_106_25)"/>
</svg>
