<svg width="17" height="17" viewBox="0 0 17 17" fill="none" xmlns="http://www.w3.org/2000/svg">
<path d="M14.5124 6.01238V2.48762H10.9876L8.5 0L6.01238 2.48762H2.48762V6.01238L0 8.5L2.48762 10.9876V14.5124H6.01238L8.5 17L10.9876 14.5124H14.5124V10.9876L17 8.5L14.5124 6.01238ZM13.0093 10.3638V13.0093H10.3638L8.5 14.8731L6.63616 13.0093H3.99072V10.3638L2.12688 8.5L3.99072 6.63616V3.99072H6.63616L8.5 2.12688L10.3638 3.99072H13.0093V6.63616L14.8731 8.5L13.0093 10.3638ZM8.5 4.36649C6.22281 4.36649 4.36649 6.22281 4.36649 8.5C4.36649 10.7772 6.22281 12.6335 8.5 12.6335C10.7772 12.6335 12.6335 10.7772 12.6335 8.5C12.6335 6.22281 10.7772 4.36649 8.5 4.36649Z" fill="white"/>
</svg>
